HIERARCHY
ROOT root
{
	OFFSET	0	13.1	24.9
	CHANNELS 6  Xposition Yposition Zposition Xrotation Yrotation Zrotation
	JOINT spine_1
	{
		OFFSET	0	9.99999	0
		CHANNELS 3  Xrotation Yrotation Zrotation
		JOINT spine_2
		{
			OFFSET	0	112	-10
			CHANNELS 3  Xrotation Yrotation Zrotation
			JOINT spine_3
			{
				OFFSET	0	206.5	19.3
				CHANNELS 3  Xrotation Yrotation Zrotation
				JOINT spine_4
				{
					OFFSET	0	110.4	14.6
					CHANNELS 3  Xrotation Yrotation Zrotation
					JOINT neck_1
					{
						OFFSET	0	71.8	-50.3
						CHANNELS 3  Xrotation Yrotation Zrotation
						JOINT neck_2
						{
							OFFSET	0	86.2	-25.8
							CHANNELS 3  Xrotation Yrotation Zrotation
							JOINT head_ee
							{
								OFFSET	0	179.8	-8.7
								CHANNELS 3  Xrotation Yrotation Zrotation
								End Site
								{
									OFFSET	1	0	0
								}
							}
						}
					}
					JOINT left_clavicle
					{
						OFFSET	-43.2	22.4	-70.8
						CHANNELS 3  Xrotation Yrotation Zrotation
						JOINT left_shoulder
						{
							OFFSET	-93.9	-5.79999	48.7
							CHANNELS 3  Xrotation Yrotation Zrotation
							JOINT left_elbow
							{
								OFFSET	-291.4	-30.8	15.2
								CHANNELS 3  Xrotation Yrotation Zrotation
								JOINT left_lowarm_twist
								{
									OFFSET	-110.7	-3.89999	13.6
									CHANNELS 3  Xrotation Yrotation Zrotation
									JOINT left_hand
									{
										OFFSET	-110.7	-3.89999	13.6
										CHANNELS 3  Xrotation Yrotation Zrotation
										JOINT left_ee
										{
											OFFSET	-80.8	-5.10001	12.1
											CHANNELS 3  Xrotation Yrotation Zrotation
											End Site
											{
												OFFSET	1	0	0
											}
										}
									}
								}
							}
						}
					}
					JOINT right_clavicle
					{
						OFFSET	43.2	22.4	-70.8
						CHANNELS 3  Xrotation Yrotation Zrotation
						JOINT right_shoulder
						{
							OFFSET	93.9	-5.79999	48.7
							CHANNELS 3  Xrotation Yrotation Zrotation
							JOINT right_elbow
							{
								OFFSET	291.4	-30.8	15.2
								CHANNELS 3  Xrotation Yrotation Zrotation
								JOINT right_lowarm_twist
								{
									OFFSET	110.7	-3.89999	13.6
									CHANNELS 3  Xrotation Yrotation Zrotation
									JOINT right_hand
									{
										OFFSET	110.7	-3.89999	13.6
										CHANNELS 3  Xrotation Yrotation Zrotation
										JOINT right_ee
										{
											OFFSET	80.8	-5.10001	12.1
											CHANNELS 3  Xrotation Yrotation Zrotation
											End Site
											{
												OFFSET	1	0	0
											}
										}
									}
								}
							}
						}
					}
				}
			}
		}
	}
	JOINT left_hip
	{
		OFFSET	-82.8	-127.5	0.300001
		CHANNELS 3  Xrotation Yrotation Zrotation
		JOINT left_knee
		{
			OFFSET	-28.2	-396.7	2.2
			CHANNELS 3  Xrotation Yrotation Zrotation
			JOINT left_ankle
			{
				OFFSET	-11.7	-411.3	35.4
				CHANNELS 3  Xrotation Yrotation Zrotation
				JOINT left_toes
				{
					OFFSET	0	-60	-88.6
					CHANNELS 3  Xrotation Yrotation Zrotation
					JOINT left_foot_ee
					{
						OFFSET	-22.5	-16.5	-42.2
						CHANNELS 3  Xrotation Yrotation Zrotation
						End Site
						{
							OFFSET	1	0	0
						}
					}
				}
			}
		}
	}
	JOINT right_hip
	{
		OFFSET	82.8	-127.5	0.300001
		CHANNELS 3  Xrotation Yrotation Zrotation
		JOINT right_knee
		{
			OFFSET	28.2	-396.7	2.2
			CHANNELS 3  Xrotation Yrotation Zrotation
			JOINT right_ankle
			{
				OFFSET	11.7	-411.3	35.4
				CHANNELS 3  Xrotation Yrotation Zrotation
				JOINT right_toes
				{
					OFFSET	0	-60	-88.6
					CHANNELS 3  Xrotation Yrotation Zrotation
					JOINT right_foot_ee
					{
						OFFSET	22.5	-16.5	-42.2
						CHANNELS 3  Xrotation Yrotation Zrotation
						End Site
						{
							OFFSET	1	0	0
						}
					}
				}
			}
		}
	}
}
MOTION
Frames: 9
Frame Time: 0.02
1363.13 698.009 -1492.16 -116.026 81.3863 106.157 4.64523 0.458427 5.43431 4.66164 0.112224 5.4524 4.65981 -0.599472 5.42061 4.61893 0.262823 5.44724 -21.1642 2.54593 -7.31198 -21.1321 8.48016 -5.67841 -0.0 0.0 -0.0 -1.33341 -4.3904 -3.19525 24.0078 -28.6744 59.955 1.99361 -44.6368 0.818455 10.3048 0.247525 -1.29131 -1.19598 5.39745 -5.59195 -0.0 0.0 -0.0 8.08392 -13.9814 -15.0292 -38.931 15.7864 -66.456 0.223121 6.30732 -0.0122934 5.94348 -0.17117 0.73956 -0.127281 1.05756 1.29855 0.0 0.0 0.0 2.5549 -3.75386 11.0503 -8.00266 0.245835 1.20257 35.3872 -16.4682 -4.78128 -22.2693 0.0 0.0 -0.0 0.0 -0.0 31.7813 9.56342 9.13312 3.65517 0.167685 0.535671 -13.7743 -10.1651 -2.0631 12.2575 -0.0 -0.0 0.0 0.0 0.0 
1344.7 694.525 -1499.45 -117.636 81.7656 107.795 4.50925 0.574715 5.53037 4.52623 0.222194 5.55564 4.53543 -0.515517 5.53619 4.49287 0.363904 5.54818 -19.0556 1.87333 -7.16005 -18.9869 7.36656 -5.92512 -0.0 0.0 -0.0 -1.76469 -4.39379 -4.06343 24.1517 -28.5038 60.8198 1.96239 -44.1849 0.796606 8.68479 0.22407 -1.08571 -1.09521 5.88609 -4.71046 -0.0 0.0 -0.0 8.30328 -15.8783 -15.2252 -38.3271 15.4969 -66.2101 0.258394 7.29442 -0.0164705 6.57349 -0.184793 0.818886 0.162837 -0.732284 -1.39369 0.0 0.0 0.0 2.82685 -3.16152 10.2515 -12.1364 0.30645 1.83384 38.9351 -12.0875 -4.98515 -22.8596 0.0 0.0 -0.0 0.0 -0.0 30.6922 9.76676 8.68577 1.7834 0.0775373 0.262667 -13.3762 -8.87766 -2.00206 13.899 -0.0 -0.0 0.0 0.0 0.0 
1327.89 694.938 -1510.97 -120.722 82.0796 110.731 4.35576 0.662986 5.57835 4.37301 0.307249 5.60911 4.39125 -0.45206 5.59933 4.34779 0.436497 5.60056 -19.394 1.42155 -7.95811 -19.2841 6.87047 -6.8378 -0.0 0.0 -0.0 -2.1588 -4.71601 -4.90702 22.0885 -28.782 60.7181 2.04448 -45.3584 0.854429 7.51244 0.203475 -0.937372 -0.815838 5.58651 -3.01025 -0.0 0.0 -0.0 8.68648 -17.9549 -15.6289 -38.0486 15.4933 -66.1812 0.267635 7.55231 -0.0176644 6.94705 -0.192458 0.865988 0.406897 -2.4557 -3.73154 0.0 0.0 0.0 3.12517 -3.3436 9.25039 -16.0534 0.321755 2.43451 38.6823 -10.0644 -4.91219 -23.5286 0.0 0.0 -0.0 0.0 -0.0 30.332 9.87741 7.3207 -0.989095 -0.039461 -0.146658 -9.62574 -11.7887 -1.43642 16.0325 -0.0 -0.0 0.0 0.0 0.0 
1313.14 696.256 -1516.69 -119.873 82.7898 109.561 4.21895 0.741358 5.72905 4.23712 0.375921 5.76445 4.26314 -0.417645 5.76159 4.21719 0.495985 5.7554 -18.6476 0.92565 -8.74033 -18.489 6.43451 -7.79603 -0.0 0.0 -0.0 -2.90842 -4.1723 -6.33904 20.3279 -28.8708 61.2722 2.03049 -45.1617 0.844486 6.58612 0.185057 -0.820477 -0.439418 4.75596 -0.898029 -0.0 0.0 -0.0 9.13991 -19.4591 -16.1637 -36.1963 16.2951 -66.1108 0.323394 9.10164 -0.0257404 7.72362 -0.207409 0.964061 0.483707 -4.50258 -5.0742 0.0 0.0 0.0 3.34906 -2.48044 9.02682 -18.9123 0.306996 2.87286 39.3157 -5.00784 -4.87234 -23.809 0.0 0.0 -0.0 0.0 -0.0 29.6245 10.1522 7.02039 -2.65552 -0.100193 -0.395183 -10.306 -8.74507 -1.53707 16.276 -0.0 -0.0 0.0 0.0 0.0 
1296.31 697.318 -1523.62 -126.365 83.2903 115.907 3.95059 0.826041 5.73833 3.96878 0.459847 5.77907 4.0047 -0.362288 5.78599 3.95844 0.554488 5.77079 -19.2719 1.0513 -9.48957 -19.0886 6.9743 -8.42399 -0.0 0.0 -0.0 -3.26077 -4.31456 -7.07789 18.2101 -28.9291 61.7999 1.96722 -44.2553 0.799978 6.71632 0.18776 -0.836889 -0.205232 5.35965 0.894541 -0.0 0.0 -0.0 9.48928 -20.5276 -16.5592 -35.6041 15.929 -66.7482 0.37977 10.6546 -0.0354127 8.04164 -0.213147 1.00428 0.734628 -5.52641 -7.14173 0.0 0.0 0.0 3.19719 -2.12354 8.90818 -22.2619 0.261914 3.38478 38.5984 -0.92031 -4.76078 -24.4246 0.0 0.0 -0.0 0.0 -0.0 29.4207 10.1625 6.34906 -9.16045 -0.267403 -1.37892 -4.60644 -9.23629 -0.680825 16.8336 -0.0 -0.0 0.0 0.0 0.0 
1281.49 698.988 -1527.66 -122.883 84.3287 112.84 3.722 0.905936 5.64331 3.73954 0.545597 5.68931 3.78477 -0.286213 5.70818 3.73986 0.61739 5.68199 -18.5205 0.688893 -10.5453 -18.2731 6.96601 -9.58512 -0.0 0.0 -0.0 -4.27 -4.09356 -9.09838 15.1913 -29.1632 62.3046 1.94976 -44.0001 0.787819 5.94973 0.17131 -0.740346 0.173452 5.00821 3.23498 -0.0 0.0 -0.0 9.92926 -21.3332 -17.1171 -34.4421 16.2722 -65.6343 0.415136 11.6209 -0.0422446 8.05193 -0.213329 1.00558 0.879478 -8.69889 -9.3301 0.0 0.0 0.0 3.39364 -2.02677 9.09383 -25.922 0.17854 3.94016 38.2857 2.18163 -4.71267 -24.647 0.0 0.0 -0.0 0.0 -0.0 29.4177 10.2607 5.12865 -14.1679 -0.319514 -2.14524 3.98716 -11.1702 0.578255 17.5116 -0.0 -0.0 0.0 0.0 0.0 
1269.74 700.356 -1532.63 -116.783 85.2754 106.647 3.35621 0.918466 5.68623 3.37401 0.555385 5.73294 3.42233 -0.319342 5.75086 3.3767 0.59138 5.72935 -18.3601 0.746632 -10.963 -18.0932 7.33181 -9.96192 -0.0 0.0 -0.0 -4.90288 -4.0897 -10.3985 12.8919 -29.3925 62.7115 1.90569 -43.3461 0.757386 3.72467 0.116261 -0.461462 0.226965 5.96287 3.97655 -0.0 0.0 -0.0 10.2554 -21.9826 -17.5085 -33.1035 16.511 -65.6123 0.365426 10.2609 -0.0328091 8.61309 -0.222897 1.07662 1.32292 -8.25741 -12.0848 0.0 0.0 0.0 3.97008 -4.30766 9.24346 -29.1913 0.0741892 4.431 37.6613 2.66172 -4.65425 -25.5158 0.0 0.0 -0.0 0.0 -0.0 29.2841 10.4311 4.23957 -16.8208 -0.319941 -2.55224 6.69774 -13.008 0.96593 15.6058 -0.0 -0.0 0.0 0.0 0.0 
1248.37 702.075 -1535.37 -125.269 86.3069 115.096 3.21533 0.948238 5.70674 3.23325 0.583798 5.75529 3.28531 -0.308372 5.77653 3.2393 0.606248 5.75298 -15.7809 -1.02549 -11.0578 -15.4569 4.47631 -10.7784 -0.0 0.0 -0.0 -5.65816 -3.47566 -11.8345 9.60192 -30.3839 63.489 1.79549 -41.647 0.682931 4.94905 0.147894 -0.614664 0.578159 5.18322 5.97178 -0.0 0.0 -0.0 10.7295 -22.5679 -18.1299 -31.6161 16.892 -65.5527 0.474662 13.232 -0.055055 9.10637 -0.230733 1.13915 1.14045 -11.0417 -11.9132 0.0 0.0 0.0 4.38073 0.301089 9.12576 -32.296 -0.0507036 4.89102 35.62 7.9154 -4.46217 -25.9114 0.0 0.0 -0.0 0.0 -0.0 26.5002 10.0201 3.89784 -17.5416 -0.316802 -2.66278 9.61933 -16.986 1.38642 17.7228 -0.0 -0.0 0.0 0.0 0.0 
1232.57 699.285 -1541.1 -92.9166 87.3141 82.4548 2.96552 1.23686 5.5994 2.98253 0.878635 5.66646 3.06459 -0.0240202 5.7339 3.01982 0.880368 5.66619 -15.5629 -1.1569 -11.6142 -15.2038 4.59514 -11.356 -0.0 0.0 -0.0 -6.50132 -2.47491 -13.3633 6.83686 -31.0526 64.0458 1.72038 -40.435 0.633615 5.12045 0.15206 -0.636162 0.828317 4.2696 7.26377 -0.0 0.0 -0.0 10.925 -22.6517 -18.4161 -28.9154 18.1051 -66.4851 0.477987 13.3214 -0.0558185 8.99913 -0.229075 1.12555 1.01398 -13.2716 -11.9046 0.0 0.0 0.0 6.14749 0.23079 8.99621 -39.2692 -0.42093 5.89572 32.886 7.96824 -4.19157 -26.3142 0.0 0.0 -0.0 0.0 -0.0 24.3434 9.80326 3.48446 -16.2374 -0.321463 -2.46274 13.7595 -18.4848 1.96409 17.3595 -0.0 -0.0 0.0 0.0 0.0 
